
<svg id="Layer_1" data-name="Layer 1" xmlns="http://www.w3.org/2000/svg" viewBox="0 0 23.77 32"><defs><style>.cls-1{fill:#fff;}</style></defs><title>phone</title><g id="ix1C0A.tif"><path class="cls-1" d="M386.12,261.76a1.71,1.71,0,0,0,.06-.41,5.89,5.89,0,0,1,.56-1.88,5.41,5.41,0,0,1,1.87-2.09,7.93,7.93,0,0,1,2.32-1,10.51,10.51,0,0,1,1.62-.3l.37,0c.11,0,.12,0,.13.12,0,.29,0,.58,0,.88,0,.57,0,1.14.05,1.7,0,.25,0,.5,0,.76,0,.56,0,1.13.05,1.69,0,.25,0,.5,0,.76,0,.56,0,1.13.05,1.69,0,.26,0,.51,0,.77s0,.5,0,.76,0,.18-.17.28a3,3,0,0,0-.87.65,2.51,2.51,0,0,0-.64,1.42,3.79,3.79,0,0,0,.16,1.57,2.24,2.24,0,0,0,.15.37l1.32,2.59q.83,1.61,1.68,3.21c.49.92,1,1.84,1.51,2.74a19.06,19.06,0,0,0,1,1.63,2.24,2.24,0,0,0,1.3.93,2.56,2.56,0,0,0,1.14,0,3.49,3.49,0,0,0,1-.37.17.17,0,0,1,.22,0l3.53,2.78,3.27,2.57.39.3c.08.07.08.08,0,.14-.26.17-.53.32-.8.46a17.83,17.83,0,0,1-3,1.24q-.55.17-1.11.31l-.1,0h-2.11l-.07,0c-.24,0-.47-.1-.7-.16a10,10,0,0,1-2.75-1.27,17.46,17.46,0,0,1-2.66-2.15c-.49-.47-1-1-1.41-1.48-.65-.74-1.27-1.51-1.86-2.3s-1.13-1.57-1.67-2.37c-.24-.35-.48-.71-.71-1.07a14.93,14.93,0,0,1-1.15-2.33,25,25,0,0,1-1-3.38,37.67,37.67,0,0,1-.75-4.38q-.1-.89-.16-1.78c0-.51-.07-1-.08-1.53a1.94,1.94,0,0,0,0-.45Z" transform="translate(-386.12 -256)"/><path class="cls-1" d="M409.88,283.37c-.18.66-.4,1.31-.61,2h0c0,.11-.06.12-.15,0l-.84-.66-3.66-2.91-2.86-2.28c-.13-.11-.13-.11,0-.19l1.73-.92a.72.72,0,0,1,.5-.07,2.38,2.38,0,0,1,.9.38c.45.3.87.63,1.3,1,1.06.81,2.1,1.63,3.15,2.46a1.45,1.45,0,0,1,.53.82Z" transform="translate(-386.12 -256)"/><path class="cls-1" d="M394.38,256a4,4,0,0,1,.65.2,3.77,3.77,0,0,1,1,.65,1.43,1.43,0,0,1,.23.27.74.74,0,0,1,.12.41c0,.64,0,1.29,0,1.93s0,1,0,1.54,0,1.2,0,1.8c0,.28,0,.56,0,.84a.31.31,0,0,1-.07.21,7.43,7.43,0,0,1-.57.65,2.45,2.45,0,0,1-.71.46,2.43,2.43,0,0,1-.61.21.63.63,0,0,1-.27,0,.22.22,0,0,1-.18-.19c0-.1,0-.21,0-.31s0-.45,0-.67,0-.5,0-.74,0-.73,0-1.09,0-.63,0-.95,0-.79,0-1.19,0-.87,0-1.31,0-1.06,0-1.6c0-.32,0-.65,0-1,0-.06,0-.11.05-.15Z" transform="translate(-386.12 -256)"/></g></svg>
